<mxfile host="app.diagrams.net" modified="2024-01-18T20:30:46.951Z" agent="Mozilla/5.0 (Macintosh; Intel Mac OS X 10_15_7) AppleWebKit/537.36 (KHTML, like Gecko) Chrome/120.0.0.0 Safari/537.36" etag="WVDTXwFQf8Gctn88aKtH" version="22.1.18" type="device">
  <diagram name="Page-1" id="FL-Mw_6GuLg2IRkAlU_W">
    <mxGraphModel dx="1306" dy="847" grid="1" gridSize="10" guides="1" tooltips="1" connect="1" arrows="1" fold="1" page="1" pageScale="1" pageWidth="850" pageHeight="1100" math="0" shadow="0">
      <root>
        <mxCell id="0" />
        <mxCell id="1" parent="0" />
        <mxCell id="dKw7dfsVt1fuKOU2xHIX-2" value="" style="ellipse;whiteSpace=wrap;html=1;aspect=fixed;" vertex="1" parent="1">
          <mxGeometry x="30" y="120" width="80" height="80" as="geometry" />
        </mxCell>
        <mxCell id="dKw7dfsVt1fuKOU2xHIX-1" value="" style="rounded=0;whiteSpace=wrap;html=1;" vertex="1" parent="1">
          <mxGeometry x="30" y="20" width="80" height="80" as="geometry" />
        </mxCell>
        <mxCell id="dKw7dfsVt1fuKOU2xHIX-3" value="" style="endArrow=classic;html=1;rounded=0;entryX=1;entryY=0.5;entryDx=0;entryDy=0;" edge="1" parent="1" source="dKw7dfsVt1fuKOU2xHIX-4" target="dKw7dfsVt1fuKOU2xHIX-1">
          <mxGeometry width="50" height="50" relative="1" as="geometry">
            <mxPoint x="400" y="460" as="sourcePoint" />
            <mxPoint x="450" y="410" as="targetPoint" />
          </mxGeometry>
        </mxCell>
        <mxCell id="dKw7dfsVt1fuKOU2xHIX-4" value="Router" style="text;html=1;align=center;verticalAlign=middle;resizable=0;points=[];autosize=1;strokeColor=none;fillColor=none;" vertex="1" parent="1">
          <mxGeometry x="180" y="45" width="60" height="30" as="geometry" />
        </mxCell>
        <mxCell id="dKw7dfsVt1fuKOU2xHIX-5" value="SED/Device" style="text;html=1;align=center;verticalAlign=middle;resizable=0;points=[];autosize=1;strokeColor=none;fillColor=none;" vertex="1" parent="1">
          <mxGeometry x="165" y="145" width="90" height="30" as="geometry" />
        </mxCell>
        <mxCell id="dKw7dfsVt1fuKOU2xHIX-6" value="" style="endArrow=classic;html=1;rounded=0;entryX=1;entryY=0.5;entryDx=0;entryDy=0;" edge="1" parent="1" source="dKw7dfsVt1fuKOU2xHIX-5" target="dKw7dfsVt1fuKOU2xHIX-2">
          <mxGeometry width="50" height="50" relative="1" as="geometry">
            <mxPoint x="400" y="460" as="sourcePoint" />
            <mxPoint x="450" y="410" as="targetPoint" />
          </mxGeometry>
        </mxCell>
        <mxCell id="dKw7dfsVt1fuKOU2xHIX-8" value="" style="rounded=0;whiteSpace=wrap;html=1;" vertex="1" parent="1">
          <mxGeometry x="110" y="390" width="130" height="220" as="geometry" />
        </mxCell>
        <mxCell id="dKw7dfsVt1fuKOU2xHIX-9" value="" style="rounded=0;whiteSpace=wrap;html=1;" vertex="1" parent="1">
          <mxGeometry x="128" y="400" width="95" height="170" as="geometry" />
        </mxCell>
        <mxCell id="dKw7dfsVt1fuKOU2xHIX-10" value="" style="rounded=0;whiteSpace=wrap;html=1;" vertex="1" parent="1">
          <mxGeometry x="360" y="460" width="80" height="80" as="geometry" />
        </mxCell>
        <mxCell id="dKw7dfsVt1fuKOU2xHIX-11" value="" style="endArrow=none;dashed=1;html=1;dashPattern=1 3;strokeWidth=2;rounded=0;" edge="1" parent="1">
          <mxGeometry width="50" height="50" relative="1" as="geometry">
            <mxPoint x="480" y="690" as="sourcePoint" />
            <mxPoint x="480" y="340" as="targetPoint" />
          </mxGeometry>
        </mxCell>
        <mxCell id="dKw7dfsVt1fuKOU2xHIX-13" value="" style="endArrow=classic;startArrow=classic;html=1;rounded=0;exitX=1;exitY=0.5;exitDx=0;exitDy=0;entryX=0;entryY=0.5;entryDx=0;entryDy=0;" edge="1" parent="1" source="dKw7dfsVt1fuKOU2xHIX-8" target="dKw7dfsVt1fuKOU2xHIX-10">
          <mxGeometry width="50" height="50" relative="1" as="geometry">
            <mxPoint x="480" y="560" as="sourcePoint" />
            <mxPoint x="530" y="510" as="targetPoint" />
          </mxGeometry>
        </mxCell>
        <mxCell id="dKw7dfsVt1fuKOU2xHIX-14" value="" style="ellipse;whiteSpace=wrap;html=1;aspect=fixed;" vertex="1" parent="1">
          <mxGeometry x="40" y="130" width="80" height="80" as="geometry" />
        </mxCell>
        <mxCell id="dKw7dfsVt1fuKOU2xHIX-15" value="" style="ellipse;whiteSpace=wrap;html=1;aspect=fixed;" vertex="1" parent="1">
          <mxGeometry x="660" y="240" width="80" height="80" as="geometry" />
        </mxCell>
        <mxCell id="dKw7dfsVt1fuKOU2xHIX-16" value="" style="ellipse;whiteSpace=wrap;html=1;aspect=fixed;" vertex="1" parent="1">
          <mxGeometry x="660" y="380" width="80" height="80" as="geometry" />
        </mxCell>
        <mxCell id="dKw7dfsVt1fuKOU2xHIX-17" value="" style="ellipse;whiteSpace=wrap;html=1;aspect=fixed;" vertex="1" parent="1">
          <mxGeometry x="660" y="520" width="80" height="80" as="geometry" />
        </mxCell>
        <mxCell id="dKw7dfsVt1fuKOU2xHIX-18" value="" style="ellipse;whiteSpace=wrap;html=1;aspect=fixed;" vertex="1" parent="1">
          <mxGeometry x="660" y="660" width="80" height="80" as="geometry" />
        </mxCell>
        <mxCell id="dKw7dfsVt1fuKOU2xHIX-19" value="" style="endArrow=classic;startArrow=classic;html=1;rounded=0;exitX=1;exitY=0.5;exitDx=0;exitDy=0;" edge="1" parent="1" source="dKw7dfsVt1fuKOU2xHIX-10">
          <mxGeometry width="50" height="50" relative="1" as="geometry">
            <mxPoint x="480" y="510" as="sourcePoint" />
            <mxPoint x="670" y="300" as="targetPoint" />
          </mxGeometry>
        </mxCell>
        <mxCell id="dKw7dfsVt1fuKOU2xHIX-20" value="" style="endArrow=classic;startArrow=classic;html=1;rounded=0;entryX=0;entryY=0.675;entryDx=0;entryDy=0;entryPerimeter=0;" edge="1" parent="1" target="dKw7dfsVt1fuKOU2xHIX-16">
          <mxGeometry width="50" height="50" relative="1" as="geometry">
            <mxPoint x="440" y="500" as="sourcePoint" />
            <mxPoint x="680" y="310" as="targetPoint" />
          </mxGeometry>
        </mxCell>
        <mxCell id="dKw7dfsVt1fuKOU2xHIX-21" value="" style="endArrow=classic;startArrow=classic;html=1;rounded=0;entryX=0;entryY=0.5;entryDx=0;entryDy=0;exitX=1;exitY=0.5;exitDx=0;exitDy=0;" edge="1" parent="1" source="dKw7dfsVt1fuKOU2xHIX-10" target="dKw7dfsVt1fuKOU2xHIX-17">
          <mxGeometry width="50" height="50" relative="1" as="geometry">
            <mxPoint x="450" y="510" as="sourcePoint" />
            <mxPoint x="670" y="444" as="targetPoint" />
          </mxGeometry>
        </mxCell>
        <mxCell id="dKw7dfsVt1fuKOU2xHIX-22" value="" style="endArrow=classic;startArrow=classic;html=1;rounded=0;entryX=0.075;entryY=0.3;entryDx=0;entryDy=0;exitX=1;exitY=0.5;exitDx=0;exitDy=0;entryPerimeter=0;" edge="1" parent="1" source="dKw7dfsVt1fuKOU2xHIX-10" target="dKw7dfsVt1fuKOU2xHIX-18">
          <mxGeometry width="50" height="50" relative="1" as="geometry">
            <mxPoint x="450" y="510" as="sourcePoint" />
            <mxPoint x="670" y="570" as="targetPoint" />
          </mxGeometry>
        </mxCell>
        <mxCell id="dKw7dfsVt1fuKOU2xHIX-23" value="&lt;font style=&quot;font-size: 40px;&quot;&gt;Simple Case&lt;/font&gt;" style="text;html=1;align=center;verticalAlign=middle;resizable=0;points=[];autosize=1;strokeColor=none;fillColor=none;" vertex="1" parent="1">
          <mxGeometry x="300" y="770" width="250" height="60" as="geometry" />
        </mxCell>
        <mxCell id="dKw7dfsVt1fuKOU2xHIX-24" value="" style="rounded=0;whiteSpace=wrap;html=1;" vertex="1" parent="1">
          <mxGeometry x="100" y="1050" width="130" height="220" as="geometry" />
        </mxCell>
        <mxCell id="dKw7dfsVt1fuKOU2xHIX-25" value="" style="rounded=0;whiteSpace=wrap;html=1;" vertex="1" parent="1">
          <mxGeometry x="118" y="1060" width="95" height="170" as="geometry" />
        </mxCell>
        <mxCell id="dKw7dfsVt1fuKOU2xHIX-26" value="" style="rounded=0;whiteSpace=wrap;html=1;" vertex="1" parent="1">
          <mxGeometry x="350" y="1120" width="80" height="80" as="geometry" />
        </mxCell>
        <mxCell id="dKw7dfsVt1fuKOU2xHIX-27" value="" style="endArrow=none;dashed=1;html=1;dashPattern=1 3;strokeWidth=2;rounded=0;" edge="1" parent="1">
          <mxGeometry width="50" height="50" relative="1" as="geometry">
            <mxPoint x="470" y="1350" as="sourcePoint" />
            <mxPoint x="470" y="1000" as="targetPoint" />
          </mxGeometry>
        </mxCell>
        <mxCell id="dKw7dfsVt1fuKOU2xHIX-28" value="" style="endArrow=classic;startArrow=classic;html=1;rounded=0;exitX=1;exitY=0.5;exitDx=0;exitDy=0;entryX=0;entryY=0.5;entryDx=0;entryDy=0;" edge="1" parent="1" source="dKw7dfsVt1fuKOU2xHIX-24" target="dKw7dfsVt1fuKOU2xHIX-26">
          <mxGeometry width="50" height="50" relative="1" as="geometry">
            <mxPoint x="470" y="1220" as="sourcePoint" />
            <mxPoint x="520" y="1170" as="targetPoint" />
          </mxGeometry>
        </mxCell>
        <mxCell id="dKw7dfsVt1fuKOU2xHIX-30" value="" style="ellipse;whiteSpace=wrap;html=1;aspect=fixed;" vertex="1" parent="1">
          <mxGeometry x="650" y="1040" width="80" height="80" as="geometry" />
        </mxCell>
        <mxCell id="dKw7dfsVt1fuKOU2xHIX-31" value="" style="ellipse;whiteSpace=wrap;html=1;aspect=fixed;" vertex="1" parent="1">
          <mxGeometry x="650" y="1180" width="80" height="80" as="geometry" />
        </mxCell>
        <mxCell id="dKw7dfsVt1fuKOU2xHIX-32" value="" style="ellipse;whiteSpace=wrap;html=1;aspect=fixed;" vertex="1" parent="1">
          <mxGeometry x="650" y="1320" width="80" height="80" as="geometry" />
        </mxCell>
        <mxCell id="dKw7dfsVt1fuKOU2xHIX-34" value="" style="endArrow=classic;startArrow=classic;html=1;rounded=0;entryX=0;entryY=0.675;entryDx=0;entryDy=0;entryPerimeter=0;" edge="1" parent="1" target="dKw7dfsVt1fuKOU2xHIX-30">
          <mxGeometry width="50" height="50" relative="1" as="geometry">
            <mxPoint x="430" y="1160" as="sourcePoint" />
            <mxPoint x="670" y="970" as="targetPoint" />
          </mxGeometry>
        </mxCell>
        <mxCell id="dKw7dfsVt1fuKOU2xHIX-35" value="" style="endArrow=classic;startArrow=classic;html=1;rounded=0;entryX=0;entryY=0.5;entryDx=0;entryDy=0;exitX=1;exitY=0.5;exitDx=0;exitDy=0;" edge="1" parent="1" source="dKw7dfsVt1fuKOU2xHIX-26" target="dKw7dfsVt1fuKOU2xHIX-31">
          <mxGeometry width="50" height="50" relative="1" as="geometry">
            <mxPoint x="440" y="1170" as="sourcePoint" />
            <mxPoint x="660" y="1104" as="targetPoint" />
          </mxGeometry>
        </mxCell>
        <mxCell id="dKw7dfsVt1fuKOU2xHIX-36" value="" style="endArrow=classic;startArrow=classic;html=1;rounded=0;entryX=0.075;entryY=0.3;entryDx=0;entryDy=0;exitX=1;exitY=0.5;exitDx=0;exitDy=0;entryPerimeter=0;" edge="1" parent="1" source="dKw7dfsVt1fuKOU2xHIX-26" target="dKw7dfsVt1fuKOU2xHIX-32">
          <mxGeometry width="50" height="50" relative="1" as="geometry">
            <mxPoint x="440" y="1170" as="sourcePoint" />
            <mxPoint x="660" y="1230" as="targetPoint" />
          </mxGeometry>
        </mxCell>
        <mxCell id="dKw7dfsVt1fuKOU2xHIX-37" value="&lt;span style=&quot;font-size: 40px;&quot;&gt;Complex Case&lt;/span&gt;" style="text;html=1;align=center;verticalAlign=middle;resizable=0;points=[];autosize=1;strokeColor=none;fillColor=none;" vertex="1" parent="1">
          <mxGeometry x="270" y="1430" width="290" height="60" as="geometry" />
        </mxCell>
        <mxCell id="dKw7dfsVt1fuKOU2xHIX-38" value="" style="endArrow=classic;startArrow=classic;html=1;rounded=0;exitX=1;exitY=0.5;exitDx=0;exitDy=0;" edge="1" parent="1" source="dKw7dfsVt1fuKOU2xHIX-26" target="dKw7dfsVt1fuKOU2xHIX-29">
          <mxGeometry width="50" height="50" relative="1" as="geometry">
            <mxPoint x="430" y="1160" as="sourcePoint" />
            <mxPoint x="660" y="960" as="targetPoint" />
          </mxGeometry>
        </mxCell>
        <mxCell id="dKw7dfsVt1fuKOU2xHIX-29" value="" style="ellipse;whiteSpace=wrap;html=1;aspect=fixed;" vertex="1" parent="1">
          <mxGeometry x="580" y="930" width="80" height="80" as="geometry" />
        </mxCell>
        <mxCell id="dKw7dfsVt1fuKOU2xHIX-39" value="" style="ellipse;whiteSpace=wrap;html=1;aspect=fixed;" vertex="1" parent="1">
          <mxGeometry x="670" y="830" width="80" height="80" as="geometry" />
        </mxCell>
        <mxCell id="dKw7dfsVt1fuKOU2xHIX-40" value="" style="ellipse;whiteSpace=wrap;html=1;aspect=fixed;" vertex="1" parent="1">
          <mxGeometry x="720" y="950" width="80" height="80" as="geometry" />
        </mxCell>
        <mxCell id="dKw7dfsVt1fuKOU2xHIX-41" value="" style="ellipse;whiteSpace=wrap;html=1;aspect=fixed;" vertex="1" parent="1">
          <mxGeometry x="530" y="1340" width="80" height="80" as="geometry" />
        </mxCell>
        <mxCell id="dKw7dfsVt1fuKOU2xHIX-42" value="" style="ellipse;whiteSpace=wrap;html=1;aspect=fixed;" vertex="1" parent="1">
          <mxGeometry x="750" y="1270" width="80" height="80" as="geometry" />
        </mxCell>
        <mxCell id="dKw7dfsVt1fuKOU2xHIX-43" value="" style="ellipse;whiteSpace=wrap;html=1;aspect=fixed;" vertex="1" parent="1">
          <mxGeometry x="670" y="1430" width="80" height="80" as="geometry" />
        </mxCell>
        <mxCell id="dKw7dfsVt1fuKOU2xHIX-44" value="" style="endArrow=classic;html=1;rounded=0;entryX=0;entryY=1;entryDx=0;entryDy=0;exitX=1;exitY=0;exitDx=0;exitDy=0;" edge="1" parent="1" source="dKw7dfsVt1fuKOU2xHIX-29" target="dKw7dfsVt1fuKOU2xHIX-39">
          <mxGeometry width="50" height="50" relative="1" as="geometry">
            <mxPoint x="390" y="1270" as="sourcePoint" />
            <mxPoint x="440" y="1220" as="targetPoint" />
          </mxGeometry>
        </mxCell>
        <mxCell id="dKw7dfsVt1fuKOU2xHIX-45" value="" style="endArrow=classic;html=1;rounded=0;entryX=0;entryY=0.5;entryDx=0;entryDy=0;exitX=1;exitY=0.5;exitDx=0;exitDy=0;" edge="1" parent="1" source="dKw7dfsVt1fuKOU2xHIX-29" target="dKw7dfsVt1fuKOU2xHIX-40">
          <mxGeometry width="50" height="50" relative="1" as="geometry">
            <mxPoint x="658" y="952" as="sourcePoint" />
            <mxPoint x="692" y="908" as="targetPoint" />
          </mxGeometry>
        </mxCell>
        <mxCell id="dKw7dfsVt1fuKOU2xHIX-46" value="" style="endArrow=classic;html=1;rounded=0;entryX=0;entryY=0.5;entryDx=0;entryDy=0;exitX=1;exitY=0;exitDx=0;exitDy=0;" edge="1" parent="1" source="dKw7dfsVt1fuKOU2xHIX-32" target="dKw7dfsVt1fuKOU2xHIX-42">
          <mxGeometry width="50" height="50" relative="1" as="geometry">
            <mxPoint x="670" y="980" as="sourcePoint" />
            <mxPoint x="730" y="1000" as="targetPoint" />
          </mxGeometry>
        </mxCell>
        <mxCell id="dKw7dfsVt1fuKOU2xHIX-47" value="" style="endArrow=classic;html=1;rounded=0;entryX=0.5;entryY=0;entryDx=0;entryDy=0;exitX=0.688;exitY=0.988;exitDx=0;exitDy=0;exitPerimeter=0;" edge="1" parent="1" source="dKw7dfsVt1fuKOU2xHIX-32" target="dKw7dfsVt1fuKOU2xHIX-43">
          <mxGeometry width="50" height="50" relative="1" as="geometry">
            <mxPoint x="728" y="1342" as="sourcePoint" />
            <mxPoint x="760" y="1320" as="targetPoint" />
          </mxGeometry>
        </mxCell>
        <mxCell id="dKw7dfsVt1fuKOU2xHIX-48" value="" style="endArrow=classic;html=1;rounded=0;entryX=1;entryY=0.5;entryDx=0;entryDy=0;exitX=0.013;exitY=0.688;exitDx=0;exitDy=0;exitPerimeter=0;" edge="1" parent="1" source="dKw7dfsVt1fuKOU2xHIX-32" target="dKw7dfsVt1fuKOU2xHIX-41">
          <mxGeometry width="50" height="50" relative="1" as="geometry">
            <mxPoint x="715" y="1409" as="sourcePoint" />
            <mxPoint x="720" y="1440" as="targetPoint" />
          </mxGeometry>
        </mxCell>
      </root>
    </mxGraphModel>
  </diagram>
</mxfile>
